<svg xmlns="http://www.w3.org/2000/svg" width="24" height="24" viewBox="0 0 24 24"><g><g><path fill="#5600e8" d="M12.226 15.604c-2.13 0-3.849-1.72-3.849-3.849 0-2.13 1.72-3.85 3.85-3.85s3.848 1.72 3.848 3.85-1.719 3.85-3.849 3.85zm0-15.396C5.852.207.68 5.38.68 11.755c0 6.374 5.173 11.547 11.547 11.547H18v-2.309h-5.774c-5.011 0-9.237-4.226-9.237-9.238s4.226-9.238 9.237-9.238c5.012 0 9.238 4.226 9.238 9.238v1.651c0 .913-.82 1.813-1.732 1.813S18 14.32 18 13.406v-1.651a5.776 5.776 0 0 0-5.774-5.774 5.776 5.776 0 0 0-5.773 5.774 5.776 5.776 0 0 0 5.773 5.774 5.74 5.74 0 0 0 4.088-1.698c.75 1.028 2.044 1.698 3.418 1.698 2.275 0 4.042-1.848 4.042-4.123v-1.651C23.774 5.381 18.6.207 12.226.207z"/></g></g></svg>