<svg xmlns="http://www.w3.org/2000/svg" width="24" height="24" viewBox="0 0 24 24"><g><g><path fill="#db4437" fill-opacity=".74" d="M12.464 10.371H23.59c.123.672.185 1.313.185 1.925 0 2.175-.466 4.117-1.397 5.826-.93 1.71-2.258 3.045-3.982 4.007-1.724.962-3.7 1.443-5.93 1.443-1.607 0-3.136-.303-4.589-.91-1.453-.606-2.706-1.425-3.76-2.458-1.053-1.032-1.89-2.26-2.508-3.683a11.155 11.155 0 0 1-.929-4.496c0-1.574.31-3.072.929-4.496.619-1.423 1.455-2.651 2.509-3.683 1.053-1.033 2.306-1.852 3.76-2.459a11.791 11.791 0 0 1 4.587-.91c3.07 0 5.704 1.008 7.903 3.023L17.16 6.522c-1.258-1.193-2.824-1.79-4.696-1.79-1.32 0-2.54.326-3.66.978a7.274 7.274 0 0 0-2.662 2.654 7.114 7.114 0 0 0-.982 3.661c0 1.323.327 2.544.982 3.661a7.274 7.274 0 0 0 2.662 2.654c1.12.652 2.34.977 3.66.977.89 0 1.709-.12 2.455-.36.747-.241 1.361-.542 1.842-.903.48-.36.9-.771 1.258-1.233.358-.46.622-.897.79-1.308a5.44 5.44 0 0 0 .346-1.172h-6.69z"/></g></g></svg>